<svg width="20" height="20" viewBox="0 0 20 20" fill="none" xmlns="http://www.w3.org/2000/svg">
<path d="M18.5087 4.51385C18.7793 4.24001 18.931 3.87057 18.931 3.48562C18.931 3.10067 18.7793 2.73124 18.5087 2.4574L17.4736 1.42228C17.2032 1.17201 16.8483 1.033 16.4799 1.033C16.1114 1.033 15.7566 1.17201 15.4862 1.42228L9.9655 6.87393L4.51385 1.42228C4.24001 1.15172 3.87057 1 3.48562 1C3.10067 1 2.73124 1.15172 2.4574 1.42228L1.42228 2.4574C1.15172 2.73124 1 3.10067 1 3.48562C1 3.87057 1.15172 4.24001 1.42228 4.51385L6.94294 10.0345L1.42228 15.4862C1.15172 15.76 1 16.1294 1 16.5144C1 16.8993 1.15172 17.2688 1.42228 17.5426L2.4574 18.5777C2.73124 18.8483 3.10067 19 3.48562 19C3.87057 19 4.24001 18.8483 4.51385 18.5777L9.9655 13.0571L15.4862 18.5087C15.76 18.7793 16.1294 18.931 16.5144 18.931C16.8993 18.931 17.2688 18.7793 17.5426 18.5087L18.5777 17.4736C18.8483 17.1998 19 16.8303 19 16.4454C19 16.0604 18.8483 15.691 18.5777 15.4171L13.0571 9.9655L18.5087 4.51385Z" stroke="black" stroke-width="1.14" stroke-linecap="round" stroke-linejoin="round"/>
</svg>
