<svg width="24" height="20" viewBox="0 0 24 20" fill="none" xmlns="http://www.w3.org/2000/svg">
<path d="M20.5987 7.48977C21.231 8.05554 21.7635 8.60468 22.1629 9.03733C22.4388 9.3431 22.5916 9.74035 22.5916 10.1522C22.5916 10.5641 22.4388 10.9614 22.1629 11.2671C20.4156 13.1475 16.4385 16.8084 11.7959 16.8084H11.1302" stroke="#677185" stroke-width="1.14" stroke-linecap="round" stroke-linejoin="round"/>
<path d="M6.58726 15.3607C4.65969 14.2811 2.918 12.899 1.42872 11.2672C1.15276 10.9614 1 10.5641 1 10.1522C1 9.74036 1.15276 9.3431 1.42872 9.03734C3.17597 7.15697 7.15303 3.49607 11.7957 3.49607C13.6258 3.53432 15.4169 4.03216 17.0042 4.94379" stroke="#677185" stroke-width="1.14" stroke-linecap="round" stroke-linejoin="round"/>
<path d="M20.948 1L2.64355 19.3045" stroke="#677185" stroke-width="1.14" stroke-linecap="round" stroke-linejoin="round"/>
<path d="M9.44944 12.4985C8.82444 11.8773 8.47137 11.0335 8.46765 10.1522C8.46765 9.26958 8.81829 8.42307 9.44243 7.79893C10.0666 7.17479 10.9131 6.82416 11.7957 6.82416C12.677 6.82787 13.5208 7.18095 14.142 7.80594" stroke="#677185" stroke-width="1.14" stroke-linecap="round" stroke-linejoin="round"/>
<path d="M14.6911 11.8163C14.3949 12.3227 13.9701 12.7417 13.4597 13.031" stroke="#677185" stroke-width="1.14" stroke-linecap="round" stroke-linejoin="round"/>
</svg>
