<svg width="25" height="24" viewBox="0 0 25 24" fill="none" xmlns="http://www.w3.org/2000/svg">
<path d="M5.91525 2.17922C3.61161 2.86235 1.87188 4.61897 1.29597 6.85135C1.06801 7.75406 1.06801 9.57167 1.29597 10.4744C1.63192 11.7918 2.21983 12.7068 3.55162 14.0364C5.68729 16.1834 11.3624 21.5509 11.7343 21.7826C12.1423 22.0388 12.8982 22.0754 13.3781 21.8558C13.5581 21.7704 15.7057 19.782 18.1653 17.4399C22.9286 12.8897 23.3365 12.414 23.8045 10.9257C24.1524 9.81565 24.2244 8.15662 23.9844 7.09532C22.8446 2.16702 16.9295 0.325012 13.2701 3.76506L12.5622 4.43599L12.1183 3.94804C11.5184 3.30151 10.5585 2.67937 9.69467 2.3622C8.79481 2.03284 6.73113 1.93525 5.91525 2.17922ZM9.44271 4.67997C10.0546 4.98494 10.4625 5.3265 11.3384 6.27801C11.9503 6.94894 12.5022 7.49788 12.5622 7.49788C12.6342 7.49788 13.2581 6.92454 13.954 6.21701C15.6097 4.57018 16.1857 4.26521 17.7334 4.26521C18.6693 4.26521 18.8972 4.31401 19.4971 4.60678C20.373 5.04593 21.2969 6.05843 21.6448 6.98553C21.8488 7.51008 21.9088 7.93704 21.9088 8.71776C21.8968 9.96203 21.6088 10.8525 20.9369 11.6455C20.409 12.2798 12.7422 19.5747 12.6102 19.5747C12.5022 19.5747 5.37534 12.8531 4.60746 12.0358C4.3195 11.7187 3.91157 11.1087 3.7076 10.6696C3.38365 9.97423 3.33566 9.74245 3.33566 8.77875C3.33566 7.49788 3.49163 6.87575 4.03155 6.08283C4.54747 5.3387 5.09938 4.87515 5.98724 4.49699C6.58715 4.24081 6.83911 4.20422 7.67898 4.24081C8.48285 4.27741 8.79481 4.3506 9.44271 4.67997Z" fill="#1D1D1D" fill-opacity="0.5"/>
</svg>
