<svg width="40" height="14" viewBox="0 0 40 14" fill="none" xmlns="http://www.w3.org/2000/svg">
<path d="M2.37656 9.83105H4.54355V1.79199H2.28769V4.15039H0.879492V2.37305C0.879492 2.13151 0.913671 1.90592 0.982031 1.69629C1.05039 1.4821 1.14381 1.29753 1.2623 1.14258C1.38079 0.983073 1.51751 0.860026 1.67246 0.773438C1.83197 0.682292 2.00286 0.636719 2.18516 0.636719H6.17051V9.27734C6.17051 9.51432 6.13633 9.73763 6.06797 9.94727C5.99961 10.1569 5.90618 10.3392 5.78769 10.4941C5.66921 10.6491 5.53021 10.7721 5.3707 10.8633C5.21575 10.9544 5.04941 11 4.87168 11H2.37656V9.83105Z" fill="#B60000"/>
<path d="M8.60137 7.1377H6.87871C6.89238 6.97363 6.9334 6.82096 7.00176 6.67969C7.07012 6.53841 7.15671 6.41536 7.26152 6.31055C7.3709 6.20573 7.49395 6.1237 7.63066 6.06445C7.77194 6.00065 7.92005 5.96875 8.075 5.96875H8.60137V0.636719H13.4002C13.5825 0.636719 13.7579 0.682292 13.9266 0.773438C14.0952 0.860026 14.2433 0.983073 14.3709 1.14258C14.5031 1.29753 14.6079 1.4821 14.6854 1.69629C14.7674 1.90592 14.8084 2.13151 14.8084 2.37305V4.92969C14.8084 5.26237 14.7332 5.56771 14.5828 5.8457C14.4324 6.1237 14.2137 6.34701 13.9266 6.51562C14.1271 6.58854 14.3003 6.69108 14.4461 6.82324C14.5919 6.9554 14.7104 7.10124 14.8016 7.26074C14.8973 7.42025 14.9679 7.58659 15.0135 7.75977C15.059 7.93294 15.0818 8.09701 15.0818 8.25195V9.27734C15.0818 9.51432 15.0477 9.73763 14.9793 9.94727C14.9109 10.1569 14.8152 10.3392 14.6922 10.4941C14.5737 10.6491 14.4347 10.7721 14.2752 10.8633C14.1202 10.9544 13.9539 11 13.7762 11H8.60137V7.1377ZM13.1883 5.96875V1.80566H10.2215V5.96875H13.1883ZM13.448 9.83105V7.1377H10.2215V9.83105H13.448ZM15.8857 11C15.8994 10.8451 15.9404 10.6969 16.0088 10.5557C16.0817 10.4098 16.1706 10.2845 16.2754 10.1797C16.3848 10.0749 16.5078 9.99056 16.6445 9.92676C16.7812 9.86296 16.9271 9.83105 17.082 9.83105H17.3691V2.37305C17.3691 2.13151 17.4033 1.90592 17.4717 1.69629C17.54 1.4821 17.6312 1.29753 17.7451 1.14258C17.8636 0.983073 18.0003 0.860026 18.1553 0.773438C18.3148 0.682292 18.4834 0.636719 18.6611 0.636719H20.8486V1.72363H18.9961V8.15625C18.9961 8.39323 18.9619 8.6097 18.8936 8.80566C18.8298 9.00163 18.7477 9.17253 18.6475 9.31836C18.5518 9.46419 18.4447 9.58268 18.3262 9.67383C18.2077 9.76042 18.096 9.81283 17.9912 9.83105H21.9971V8.32715H23.4395V9.83789C23.4395 10.002 23.4053 10.1546 23.3369 10.2959C23.2686 10.4372 23.1774 10.5602 23.0635 10.665C22.9541 10.7699 22.8265 10.8519 22.6807 10.9111C22.5394 10.9704 22.3936 11 22.2432 11H15.8857ZM24.3732 2.37305C24.3732 2.13151 24.4074 1.90592 24.4758 1.69629C24.5441 1.4821 24.6353 1.29753 24.7492 1.14258C24.8677 0.983073 25.0044 0.860026 25.1594 0.773438C25.3143 0.682292 25.4807 0.636719 25.6584 0.636719H29.6232C29.801 0.636719 29.9696 0.682292 30.1291 0.773438C30.2886 0.860026 30.4253 0.983073 30.5393 1.14258C30.6577 1.29753 30.7512 1.4821 30.8195 1.69629C30.8879 1.90592 30.9221 2.13151 30.9221 2.37305V9.27734C30.9221 9.51432 30.8879 9.73763 30.8195 9.94727C30.7512 10.1569 30.6577 10.3392 30.5393 10.4941C30.4208 10.6491 30.2818 10.7721 30.1223 10.8633C29.9673 10.9544 29.801 11 29.6232 11H25.6584C25.4807 11 25.3143 10.9544 25.1594 10.8633C25.0044 10.7721 24.8677 10.6491 24.7492 10.4941C24.6353 10.3392 24.5441 10.1569 24.4758 9.94727C24.4074 9.73763 24.3732 9.51432 24.3732 9.27734V2.37305ZM29.2951 9.83105V1.79199H26.007V9.83105H29.2951ZM32.9564 2.37988C32.9564 2.13835 32.9906 1.91276 33.059 1.70312C33.1273 1.48893 33.2185 1.30436 33.3324 1.14941C33.4509 0.989909 33.5876 0.866862 33.7426 0.780273C33.8975 0.689128 34.0639 0.643555 34.2416 0.643555H39.7104V1.79883H34.5902V9.82422H38.1039V4.96387H39.724L39.7104 11.7998C39.7104 12.0322 39.6762 12.251 39.6078 12.4561C39.544 12.6657 39.4551 12.848 39.3412 13.0029C39.2273 13.1624 39.0928 13.2878 38.9379 13.3789C38.7829 13.4701 38.6189 13.5156 38.4457 13.5156H38.1039V11H34.2416C34.0639 11 33.8975 10.9544 33.7426 10.8633C33.5876 10.7721 33.4509 10.6491 33.3324 10.4941C33.2185 10.3392 33.1273 10.1569 33.059 9.94727C32.9906 9.73763 32.9564 9.51432 32.9564 9.27734V2.37988Z" fill="#192E51"/>
</svg>
