<svg width="21" height="22" viewBox="0 0 21 22" fill="none" xmlns="http://www.w3.org/2000/svg">
<path d="M15.1429 15.9286V19.8572C15.1429 20.2739 14.9773 20.6736 14.6826 20.9683C14.3879 21.263 13.9882 21.4286 13.5714 21.4286H2.57143C2.15466 21.4286 1.75496 21.263 1.46026 20.9683C1.16556 20.6736 1 20.2739 1 19.8572V2.57143C1 2.15466 1.16556 1.75496 1.46026 1.46026C1.75496 1.16556 2.15466 1 2.57143 1H13.5714C13.9882 1 14.3879 1.16556 14.6826 1.46026C14.9773 1.75496 15.1429 2.15466 15.1429 2.57143V6.5" stroke="#0079FF" stroke-width="1.14" stroke-linecap="round" stroke-linejoin="round"/>
<path d="M19.8572 11.2143H7.28577" stroke="#0079FF" stroke-width="1.14" stroke-linecap="round" stroke-linejoin="round"/>
<path d="M10.4286 8.07147L7.28577 11.2143L10.4286 14.3572" stroke="#0079FF" stroke-width="1.14" stroke-linecap="round" stroke-linejoin="round"/>
</svg>
