<svg width="27" height="18" viewBox="0 0 27 18" fill="none" xmlns="http://www.w3.org/2000/svg">
<path d="M25.3642 7.91018C25.687 8.26784 25.8657 8.7325 25.8657 9.21429C25.8657 9.69607 25.687 10.1607 25.3642 10.5184C23.3205 12.7179 18.6685 17 13.238 17C7.80742 17 3.15545 12.7179 1.11171 10.5184C0.78891 10.1607 0.610229 9.69607 0.610229 9.21429C0.610229 8.7325 0.78891 8.26784 1.11171 7.91018C3.15545 5.71072 7.80742 1.42857 13.238 1.42857C18.6685 1.42857 23.3205 5.71072 25.3642 7.91018Z" stroke="#677185" stroke-width="1.14" stroke-linecap="round" stroke-linejoin="round"/>
<path d="M13.2379 13.1071C15.3879 13.1071 17.1308 11.3642 17.1308 9.21428C17.1308 7.06432 15.3879 5.32143 13.2379 5.32143C11.088 5.32143 9.34509 7.06432 9.34509 9.21428C9.34509 11.3642 11.088 13.1071 13.2379 13.1071Z" stroke="#677185" stroke-width="1.14" stroke-linecap="round" stroke-linejoin="round"/>
</svg>
